<?xml version="1.0" encoding="UTF-8" standalone="no"?>
<!DOCTYPE svg PUBLIC "-//W3C//DTD SVG 1.1//EN" "http://www.w3.org/Graphics/SVG/1.1/DTD/svg11.dtd">
<svg width="100%" height="100%" viewBox="0 0 5000 1000" version="1.1" xmlns="http://www.w3.org/2000/svg" xmlns:xlink="http://www.w3.org/1999/xlink" xml:space="preserve" xmlns:serif="http://www.serif.com/" style="fill-rule:evenodd;clip-rule:evenodd;stroke-linejoin:round;stroke-miterlimit:2;">
    <g id="Background" transform="matrix(16.0471,0,0,3.21051,-51.1162,-16.7335)">
        <rect x="3.185" y="5.212" width="311.583" height="311.477" style="fill:rgb(17,24,39);"/>
    </g>
    <g transform="matrix(1.59095,0,0,1.59095,743.225,270.296)">
        <g transform="matrix(246.443,0,0,246.443,50,226.529)">
            <path d="M0,-0L0,-0.778L0.111,-0.778L0.111,-0.222L0.222,-0.222L0.222,-0.333L0.333,-0.333L0.333,-0.222L0.444,-0.222L0.444,-0.778L0.556,-0.778L0.556,-0L0.444,-0L0.444,-0.111L0.333,-0.111L0.333,-0.222L0.222,-0.222L0.222,-0.111L0.111,-0.111L0.111,-0L0,-0Z" style="fill:rgb(139,92,246);fill-rule:nonzero;"/>
        </g>
        <g transform="matrix(246.443,0,0,246.443,214.296,226.529)">
            <path d="M0.111,-0.333L0.444,-0.333L0.444,-0.444L0.111,-0.444L0.111,-0.556L0.444,-0.556L0.444,-0.444L0.556,-0.444L0.556,-0.222L0.111,-0.222L0.111,-0.111L0.556,-0.111L0.556,-0L0.111,-0L0.111,-0.111L0,-0.111L0,-0.444L0.111,-0.444L0.111,-0.333Z" style="fill:rgb(139,92,246);fill-rule:nonzero;"/>
        </g>
        <g transform="matrix(246.443,0,0,246.443,378.591,226.529)">
            <path d="M0.111,-0.111L0.444,-0.111L0.444,-0.444L0.222,-0.444L0.222,-0.556L0.444,-0.556L0.444,-0.444L0.556,-0.444L0.556,-0.111L0.444,-0.111L0.444,-0L0,-0L0,-0.778L0.111,-0.778L0.111,-0.444L0.222,-0.444L0.222,-0.333L0.111,-0.333L0.111,-0.111Z" style="fill:rgb(139,92,246);fill-rule:nonzero;"/>
        </g>
        <g transform="matrix(246.443,0,0,246.443,542.887,226.529)">
            <path d="M0,-0L0,-0.778L0.111,-0.778L0.111,-0.444L0.222,-0.444L0.222,-0.556L0.444,-0.556L0.444,-0.444L0.556,-0.444L0.556,-0L0.444,-0L0.444,-0.444L0.222,-0.444L0.222,-0.333L0.111,-0.333L0.111,-0L0,-0Z" style="fill:rgb(139,92,246);fill-rule:nonzero;"/>
        </g>
        <g transform="matrix(246.443,0,0,246.443,707.182,226.529)">
            <path d="M0.111,-0.111L0,-0.111L0,-0.444L0.111,-0.444L0.111,-0.556L0.444,-0.556L0.444,-0.444L0.556,-0.444L0.556,-0.111L0.444,-0.111L0.444,-0L0.111,-0L0.111,-0.111L0.444,-0.111L0.444,-0.444L0.111,-0.444L0.111,-0.111Z" style="fill:rgb(139,92,246);fill-rule:nonzero;"/>
        </g>
        <g transform="matrix(246.443,0,0,246.443,871.478,226.529)">
            <path d="M0.111,-0.111L0,-0.111L0,-0.444L0.111,-0.444L0.111,-0.556L0.444,-0.556L0.444,-0.444L0.556,-0.444L0.556,-0.111L0.444,-0.111L0.444,-0L0.111,-0L0.111,-0.111L0.444,-0.111L0.444,-0.444L0.111,-0.444L0.111,-0.111Z" style="fill:rgb(139,92,246);fill-rule:nonzero;"/>
        </g>
        <g transform="matrix(246.443,0,0,246.443,1035.77,226.529)">
            <path d="M0.056,-0L0.056,-0.778L0.167,-0.778L0.167,-0.333L0.278,-0.333L0.278,-0.444L0.389,-0.444L0.389,-0.556L0.5,-0.556L0.5,-0.444L0.389,-0.444L0.389,-0.333L0.278,-0.333L0.278,-0.222L0.389,-0.222L0.389,-0.111L0.5,-0.111L0.5,-0L0.389,-0L0.389,-0.111L0.278,-0.111L0.278,-0.222L0.167,-0.222L0.167,-0L0.056,-0Z" style="fill:rgb(139,92,246);fill-rule:nonzero;"/>
        </g>
        <g transform="matrix(246.443,0,0,246.443,1200.07,226.529)">
            <path d="M0,-0L0,-0.778L0.111,-0.778L0.111,-0.111L0.556,-0.111L0.556,-0L0,-0Z" style="fill:rgb(139,92,246);fill-rule:nonzero;"/>
        </g>
        <g transform="matrix(246.443,0,0,246.443,1364.36,226.529)">
            <path d="M0.111,-0.111L0,-0.111L0,-0.444L0.111,-0.444L0.111,-0.556L0.444,-0.556L0.444,-0.444L0.556,-0.444L0.556,-0.111L0.444,-0.111L0.444,-0L0.111,-0L0.111,-0.111L0.444,-0.111L0.444,-0.444L0.111,-0.444L0.111,-0.111Z" style="fill:rgb(139,92,246);fill-rule:nonzero;"/>
        </g>
        <g transform="matrix(246.443,0,0,246.443,1528.66,226.529)">
            <path d="M0.111,-0.222L0,-0.222L0,-0.444L0.111,-0.444L0.111,-0.556L0.556,-0.556L0.556,-0L0.444,-0L0.444,0.111L0,0.111L0,-0L0.444,-0L0.444,-0.111L0.111,-0.111L0.111,-0.222L0.444,-0.222L0.444,-0.444L0.111,-0.444L0.111,-0.222Z" style="fill:rgb(139,92,246);fill-rule:nonzero;"/>
        </g>
        <g transform="matrix(246.443,0,0,246.443,1692.96,226.529)">
            <path d="M0.111,-0.222L0,-0.222L0,-0.444L0.111,-0.444L0.111,-0.556L0.556,-0.556L0.556,-0L0.444,-0L0.444,0.111L0,0.111L0,-0L0.444,-0L0.444,-0.111L0.111,-0.111L0.111,-0.222L0.444,-0.222L0.444,-0.444L0.111,-0.444L0.111,-0.222Z" style="fill:rgb(139,92,246);fill-rule:nonzero;"/>
        </g>
        <g transform="matrix(246.443,0,0,246.443,1857.25,226.529)">
            <path d="M0.111,-0.333L0.444,-0.333L0.444,-0.444L0.111,-0.444L0.111,-0.556L0.444,-0.556L0.444,-0.444L0.556,-0.444L0.556,-0.222L0.111,-0.222L0.111,-0.111L0.556,-0.111L0.556,-0L0.111,-0L0.111,-0.111L0,-0.111L0,-0.444L0.111,-0.444L0.111,-0.333Z" style="fill:rgb(139,92,246);fill-rule:nonzero;"/>
        </g>
        <g transform="matrix(246.443,0,0,246.443,2021.55,226.529)">
            <path d="M0,-0L0,-0.556L0.111,-0.556L0.111,-0.444L0.222,-0.444L0.222,-0.556L0.444,-0.556L0.444,-0.444L0.556,-0.444L0.556,-0.333L0.444,-0.333L0.444,-0.444L0.222,-0.444L0.222,-0.333L0.111,-0.333L0.111,-0L0,-0Z" style="fill:rgb(139,92,246);fill-rule:nonzero;"/>
        </g>
    </g>
</svg>
